<?xml version="1.0" encoding="UTF-8" standalone="no"?>
<!-- Created with Inkscape (http://www.inkscape.org/) -->

<svg
   width="793.70081"
   height="1122.5197"
   viewBox="0 0 210 296.99999"
   version="1.1"
   id="svg5"
   sodipodi:docname="colour-tree-designs-logo.svg"
   inkscape:version="1.2.1 (9c6d41e410, 2022-07-14, custom)"
   xmlns:inkscape="http://www.inkscape.org/namespaces/inkscape"
   xmlns:sodipodi="http://sodipodi.sourceforge.net/DTD/sodipodi-0.dtd"
   xmlns="http://www.w3.org/2000/svg"
   xmlns:svg="http://www.w3.org/2000/svg">
  <sodipodi:namedview
     id="namedview7"
     pagecolor="#ffffff"
     bordercolor="#111111"
     borderopacity="1"
     inkscape:showpageshadow="false"
     inkscape:pageopacity="0"
     inkscape:pagecheckerboard="true"
     inkscape:deskcolor="#d1d1d1"
     inkscape:document-units="mm"
     showgrid="false"
     showborder="false"
     showguides="false"
     inkscape:zoom="1.5589927"
     inkscape:cx="354.3955"
     inkscape:cy="466.32675"
     inkscape:window-width="1920"
     inkscape:window-height="1053"
     inkscape:window-x="1920"
     inkscape:window-y="0"
     inkscape:window-maximized="1"
     inkscape:current-layer="layer1">
    <sodipodi:guide
       position="99.720009,223.21896"
       orientation="0,-1"
       id="guide7658"
       inkscape:locked="false" />
    <sodipodi:guide
       position="85.606142,237.33283"
       orientation="1,0"
       id="guide7660"
       inkscape:locked="false" />
    <sodipodi:guide
       position="118.16488,216.54134"
       orientation="1,0"
       id="guide7670"
       inkscape:locked="false" />
    <sodipodi:guide
       position="132.27875,202.42747"
       orientation="0,-1"
       id="guide7672"
       inkscape:locked="false" />
    <sodipodi:guide
       position="25.032857,215.1977"
       orientation="1,0"
       id="guide7674"
       inkscape:locked="false" />
    <sodipodi:guide
       position="53.047407,216.54134"
       orientation="1,0"
       id="guide7676"
       inkscape:locked="false" />
  </sodipodi:namedview>
  <defs
     id="defs2" />
  <g
     inkscape:label="Layer 1"
     inkscape:groupmode="layer"
     id="layer1">
    <path
       id="rect111"
       style="fill:#412e25;stroke:#000000;stroke-width:1.49749;stroke-linecap:round;stroke-linejoin:round;stroke-dasharray:none;fill-opacity:1"
       d="M 85.526867,59.665905 A 14.090129,14.090129 0 0 0 71.436594,73.756178 14.090129,14.090129 0 0 0 82.469125,87.506988 L 82.863273,124.0348 64.089141,103.22906 A 14.090129,14.090129 0 0 0 67.112832,94.512916 14.090129,14.090129 0 0 0 53.02256,80.422644 14.090129,14.090129 0 0 0 38.932287,94.512916 14.090129,14.090129 0 0 0 53.02256,108.60319 14.090129,14.090129 0 0 0 60.554706,106.40906 L 82.940659,131.21768 83.114,147.2916 v 0.28219 H 75.605586 55.598967 l 15.062745,42.88629 h 4.943874 19.916336 4.943878 l 15.06274,-42.88629 H 95.521922 88.636199 v -0.34255 l -0.176953,-16.39893 22.039784,-24.42325 a 14.090129,14.090129 0 0 0 7.53214,2.19413 14.090129,14.090129 0 0 0 14.09028,-14.090274 14.090129,14.090129 0 0 0 -14.09028,-14.090272 14.090129,14.090129 0 0 0 -14.09027,14.090272 14.090129,14.090129 0 0 0 3.02318,8.715104 L 88.383408,123.81916 87.992872,87.619455 A 14.090129,14.090129 0 0 0 99.61714,73.756178 14.090129,14.090129 0 0 0 85.526867,59.665905 Z" />
    <path
       style="color:#000000;fill:#502d16;stroke-width:5.52262"
       d="m 85.178601,82.764397 0.696472,64.496843"
       id="path3815" />
    <path
       style="color:#000000;fill:#502d16;stroke-width:4.75454;-inkscape-stroke:none"
       d="M 118.03114,94.512863 85.526836,130.53487"
       id="path3797" />
    <path
       style="color:#000000;fill:#502d16;stroke-width:4.75454;-inkscape-stroke:none"
       d="M 53.022524,94.512861 85.526836,130.53487"
       id="path3803" />
    <path
       id="path7626"
       style="fill:#ff0000;stroke:none;stroke-width:0.944306;stroke-linecap:round;stroke-linejoin:round"
       d="M 66.350242,94.512919 A 13.327683,13.327683 0 0 1 53.02256,107.84059 13.327683,13.327683 0 0 1 39.694877,94.512919 13.327683,13.327683 0 0 1 53.02256,81.185238 13.327683,13.327683 0 0 1 66.350242,94.512919 Z" />
    <ellipse
       style="fill:#00ff00;stroke:none;stroke-width:0.944307;stroke-linecap:round;stroke-linejoin:round;stroke-dasharray:none;stroke-opacity:1"
       id="circle7628"
       cx="85.526863"
       cy="73.75618"
       rx="13.327683"
       ry="13.327682" />
    <circle
       style="fill:#0000ff;fill-opacity:1;stroke:none;stroke-width:0.944307;stroke-linecap:round;stroke-linejoin:round;stroke-dasharray:none;stroke-opacity:1"
       id="circle7632"
       cx="118.03117"
       cy="94.512909"
       r="13.327683" />
  </g>
</svg>
