<?xml version="1.0" encoding="UTF-8" standalone="no"?>
<!-- Created with Inkscape (http://www.inkscape.org/) -->

<svg
   width="357.87082"
   height="500"
   viewBox="0 0 94.686652 132.29167"
   version="1.1"
   id="svg5"
   sodipodi:docname="colour-tree-designs-logo-low-saturation-no-border-beveled.svg"
   inkscape:version="1.2.1 (9c6d41e410, 2022-07-14, custom)"
   inkscape:export-filename="colour-tree-designs-logo.png"
   inkscape:export-xdpi="96"
   inkscape:export-ydpi="96"
   xmlns:inkscape="http://www.inkscape.org/namespaces/inkscape"
   xmlns:sodipodi="http://sodipodi.sourceforge.net/DTD/sodipodi-0.dtd"
   xmlns="http://www.w3.org/2000/svg"
   xmlns:svg="http://www.w3.org/2000/svg">
  <sodipodi:namedview
     id="namedview7"
     pagecolor="#ffffff"
     bordercolor="#111111"
     borderopacity="1"
     inkscape:showpageshadow="false"
     inkscape:pageopacity="0"
     inkscape:pagecheckerboard="true"
     inkscape:deskcolor="#d1d1d1"
     inkscape:document-units="mm"
     showgrid="false"
     showborder="false"
     showguides="false"
     inkscape:zoom="1.5589927"
     inkscape:cx="246.63361"
     inkscape:cy="278.38488"
     inkscape:window-width="1920"
     inkscape:window-height="1053"
     inkscape:window-x="1920"
     inkscape:window-y="0"
     inkscape:window-maximized="1"
     inkscape:current-layer="layer1">
    <sodipodi:guide
       position="61.536468,117.4278"
       orientation="0,-1"
       id="guide7658"
       inkscape:locked="false" />
    <sodipodi:guide
       position="47.422601,131.54167"
       orientation="1,0"
       id="guide7660"
       inkscape:locked="false" />
    <sodipodi:guide
       position="79.98134,110.75018"
       orientation="1,0"
       id="guide7670"
       inkscape:locked="false" />
    <sodipodi:guide
       position="94.09521,96.636308"
       orientation="0,-1"
       id="guide7672"
       inkscape:locked="false" />
    <sodipodi:guide
       position="-13.150685,109.40654"
       orientation="1,0"
       id="guide7674"
       inkscape:locked="false" />
    <sodipodi:guide
       position="14.863866,110.75018"
       orientation="1,0"
       id="guide7676"
       inkscape:locked="false" />
    <sodipodi:guide
       position="0,105.64653"
       orientation="1,0"
       id="guide11461"
       inkscape:locked="false" />
    <sodipodi:guide
       position="29.699999,120.32681"
       orientation="1,0"
       id="guide11463"
       inkscape:locked="false" />
    <sodipodi:guide
       position="74.428519,35.33131"
       orientation="0,-1"
       id="guide12228"
       inkscape:locked="false" />
    <sodipodi:guide
       position="50.357219,52.822048"
       orientation="0,-1"
       id="guide12230"
       inkscape:locked="false" />
    <sodipodi:guide
       position="44.64294,70.58353"
       orientation="0,-1"
       id="guide12232"
       inkscape:locked="false" />
  </sodipodi:namedview>
  <defs
     id="defs2">
    <inkscape:path-effect
       effect="fillet_chamfer"
       id="path-effect12226"
       is_visible="true"
       lpeversion="1"
       nodesatellites_param="F,0,0,1,0,0,0,1 @ F,0,0,1,0,0,0,1 @ F,0,0,1,0,0,0,1 @ F,0,0,1,0,3.4096997,0,1 @ F,0,0,1,0,0,0,1 @ F,0,0,1,0,0,0,1 @ F,0,0,1,0,0,0,1 @ F,0,0,1,0,0,0,1 @ F,0,0,1,0,0,0,1 @ F,0,0,1,0,0,0,1 @ F,0,0,1,0,7.1664285,0,1 @ F,0,0,1,0,0,0,1 @ F,0,0,1,0,0,0,1 @ F,0,0,1,0,0,0,1 @ F,0,0,1,0,8.8113216,0,1 @ F,0,0,1,0,0,0,1 @ F,0,0,1,0,0,0,1 @ F,0,0,1,0,0,0,1 @ F,0,0,1,0,0,0,1 @ F,0,0,1,0,8.8010072,0,1 @ F,0,0,1,0,0,0,1 @ F,0,0,1,0,0,0,1 @ F,0,0,1,0,0,0,1 @ F,0,0,1,0,7.5549097,0,1 @ F,0,0,1,0,0,0,1 @ F,0,0,1,0,0,0,1 @ F,0,0,1,0,0,0,1 @ F,0,0,1,0,0,0,1 @ F,0,0,1,0,0,0,1 @ F,0,0,1,0,0,0,1 @ F,0,0,1,0,3.2512634,0,1 @ F,0,0,1,0,0,0,1 @ F,0,0,1,0,0,0,1"
       unit="px"
       method="auto"
       mode="F"
       radius="4"
       chamfer_steps="1"
       flexible="false"
       use_knot_distance="true"
       apply_no_radius="true"
       apply_with_radius="true"
       only_selected="false"
       hide_knots="false" />
  </defs>
  <g
     inkscape:label="Layer 1"
     inkscape:groupmode="layer"
     id="layer1"
     transform="translate(-38.183542,-58.91716)">
    <path
       id="rect111"
       style="fill:#412e25;fill-opacity:1;stroke:#412e25;stroke-width:1.497;stroke-linecap:round;stroke-linejoin:round;stroke-dasharray:none;stroke-opacity:1"
       d="m 85.526867,59.665905 c -7.781876,-8e-5 -14.090353,6.308397 -14.090273,14.090273 0.0017,6.602298 4.587559,12.318093 11.032531,13.75081 l 0.357358,33.118312 a 1.2898944,1.2898944 158.66008 0 1 -2.247468,0.87805 L 64.089141,103.22906 c 1.95746,-2.48374 3.022474,-5.553769 3.023691,-8.716144 7.9e-5,-7.781875 -6.308397,-14.090351 -14.090272,-14.090272 -7.781875,-8e-5 -14.090352,6.308397 -14.090273,14.090272 -8e-5,7.781874 6.308397,14.090354 14.090273,14.090274 2.667803,-0.004 5.279776,-0.76444 7.532146,-2.19413 l 17.584974,19.48807 a 18.943637,18.943637 68.660383 0 1 4.878257,12.48656 l 0.09606,8.90791 v 0.28219 H 75.605586 64.410289 a 6.2442417,6.2442417 125.32372 0 0 -5.891426,8.31346 l 12.142849,34.57283 h 4.943874 19.916336 4.943878 l 12.14626,-34.58256 a 6.236933,6.236933 54.676277 0 0 -5.88453,-8.30373 H 95.521922 88.636199 v -0.34255 l -0.09544,-8.84446 a 19.336627,19.336627 110.72259 0 1 4.979915,-13.16326 l 16.978352,-18.81446 c 2.25237,1.42969 4.86434,2.19056 7.53214,2.19413 7.78188,8e-5 14.09036,-6.3084 14.09028,-14.090274 8e-5,-7.781878 -6.3084,-14.090355 -14.09028,-14.090272 -7.78187,-7.8e-5 -14.09035,6.308398 -14.09027,14.090272 0.001,3.161958 1.06612,6.231574 3.02318,8.715104 l -16.402543,18.17733 a 1.2702306,1.2702306 20.721902 0 1 -2.213203,-0.83726 L 87.992872,87.619455 c 6.721609,-1.194761 11.619712,-7.036311 11.624268,-13.863277 8e-5,-7.781876 -6.308397,-14.090353 -14.090273,-14.090273 z"
       inkscape:path-effect="#path-effect12226"
       inkscape:original-d="M 85.526867,59.665905 A 14.090129,14.090129 0 0 0 71.436594,73.756178 14.090129,14.090129 0 0 0 82.469125,87.506988 L 82.863273,124.0348 64.089141,103.22906 A 14.090129,14.090129 0 0 0 67.112832,94.512916 14.090129,14.090129 0 0 0 53.02256,80.422644 14.090129,14.090129 0 0 0 38.932287,94.512916 14.090129,14.090129 0 0 0 53.02256,108.60319 14.090129,14.090129 0 0 0 60.554706,106.40906 L 82.940659,131.21768 83.114,147.2916 v 0.28219 H 75.605586 55.598967 l 15.062745,42.88629 h 4.943874 19.916336 4.943878 l 15.06274,-42.88629 H 95.521922 88.636199 v -0.34255 l -0.176953,-16.39893 22.039784,-24.42325 a 14.090129,14.090129 0 0 0 7.53214,2.19413 14.090129,14.090129 0 0 0 14.09028,-14.090274 14.090129,14.090129 0 0 0 -14.09028,-14.090272 14.090129,14.090129 0 0 0 -14.09027,14.090272 14.090129,14.090129 0 0 0 3.02318,8.715104 L 88.383408,123.81916 87.992872,87.619455 A 14.090129,14.090129 0 0 0 99.61714,73.756178 14.090129,14.090129 0 0 0 85.526867,59.665905 Z" />
    <path
       style="color:#000000;fill:#502d16;stroke-width:5.52262"
       d="m 85.178601,82.764397 0.696472,64.496843"
       id="path3815" />
    <path
       style="color:#000000;fill:#502d16;stroke-width:4.75454;-inkscape-stroke:none"
       d="M 118.03114,94.512863 85.526836,130.53487"
       id="path3797" />
    <path
       style="color:#000000;fill:#502d16;stroke-width:4.75454;-inkscape-stroke:none"
       d="M 53.022524,94.512861 85.526836,130.53487"
       id="path3803" />
    <path
       id="path7626"
       style="fill:#b84747;fill-opacity:1;stroke:none;stroke-width:1.05217;stroke-linecap:round;stroke-linejoin:round"
       d="M 67.883541,94.501937 A 14.850001,14.850001 0 0 1 53.033543,109.35192 14.850001,14.850001 0 0 1 38.183542,94.501937 14.850001,14.850001 0 0 1 53.033543,79.65194 14.850001,14.850001 0 0 1 67.883541,94.501937 Z" />
    <ellipse
       style="fill:#47b847;fill-opacity:1;stroke:none;stroke-width:1.05217;stroke-linecap:round;stroke-linejoin:round;stroke-dasharray:none;stroke-opacity:1"
       id="circle7628"
       cx="85.506546"
       cy="73.781029"
       rx="14.85"
       ry="14.849998" />
    <circle
       style="fill:#4747b8;fill-opacity:1;stroke:none;stroke-width:1.05217;stroke-linecap:round;stroke-linejoin:round;stroke-dasharray:none;stroke-opacity:1"
       id="circle7632"
       cx="117.97955"
       cy="94.512863"
       r="14.85" />
  </g>
</svg>
