<svg xmlns="http://www.w3.org/2000/svg" version="1.1" xmlns:xlink="http://www.w3.org/1999/xlink" xmlns:svgjs="http://svgjs.com/svgjs" width="1920" height="360" preserveAspectRatio="none" viewBox="0 0 1920 360">
    <g mask="url(&quot;#SvgjsMask1016&quot;)" fill="none">
        <path d="M-90.1 355.46L-90.1 355.46" stroke="#132e65" stroke-width="1.5"></path>
        <path d="M-90.1 355.46L58.67 378.34" stroke="#132e65" stroke-width="1.5"></path>
        <path d="M-90.1 355.46L-38.59 512.04" stroke="#132e65" stroke-width="1.5"></path>
        <path d="M-90.1 355.46L78.45 549.03" stroke="#132e65" stroke-width="1.5"></path>
        <path d="M-38.59 512.04L-38.59 512.04" stroke="#132e65" stroke-width="1.5"></path>
        <path d="M-38.59 512.04L78.45 549.03" stroke="#132e65" stroke-width="1.5"></path>
        <path d="M-38.59 512.04L58.67 378.34" stroke="#132e65" stroke-width="1.5"></path>
        <path d="M-38.59 512.04L225.21 382.45" stroke="#132e65" stroke-width="1.5"></path>
        <path d="M58.67 378.34L58.67 378.34" stroke="#132e65" stroke-width="1.5"></path>
        <path d="M58.67 378.34L225.21 382.45" stroke="#132e65" stroke-width="1.5"></path>
        <path d="M78.45 549.03L78.45 549.03" stroke="#132e65" stroke-width="1.5"></path>
        <path d="M78.45 549.03L58.67 378.34" stroke="#132e65" stroke-width="1.5"></path>
        <path d="M225.21 382.45L225.21 382.45" stroke="#132e65" stroke-width="1.5"></path>
        <path d="M225.21 382.45L352.98 404.24" stroke="#132e65" stroke-width="1.5"></path>
        <path d="M225.21 382.45L349.53 499.08" stroke="#132e65" stroke-width="1.5"></path>
        <path d="M225.21 382.45L78.45 549.03" stroke="#132e65" stroke-width="1.5"></path>
        <path d="M225.21 382.45L492.48 525.44" stroke="#132e65" stroke-width="1.5"></path>
        <path d="M352.98 404.24L352.98 404.24" stroke="#132e65" stroke-width="1.5"></path>
        <path d="M352.98 404.24L349.53 499.08" stroke="#132e65" stroke-width="1.5"></path>
        <path d="M352.98 404.24L492.48 525.44" stroke="#132e65" stroke-width="1.5"></path>
        <path d="M352.98 404.24L514.14 260.24" stroke="#132e65" stroke-width="1.5"></path>
        <path d="M352.98 404.24L58.67 378.34" stroke="#132e65" stroke-width="1.5"></path>
        <path d="M349.53 499.08L349.53 499.08" stroke="#132e65" stroke-width="1.5"></path>
        <path d="M349.53 499.08L492.48 525.44" stroke="#132e65" stroke-width="1.5"></path>
        <path d="M349.53 499.08L78.45 549.03" stroke="#132e65" stroke-width="1.5"></path>
        <path d="M349.53 499.08L514.14 260.24" stroke="#132e65" stroke-width="1.5"></path>
        <path d="M514.14 260.24L514.14 260.24" stroke="#132e65" stroke-width="1.5"></path>
        <path d="M514.14 260.24L660.69 253.57" stroke="#132e65" stroke-width="1.5"></path>
        <path d="M514.14 260.24L654.25 402.61" stroke="#132e65" stroke-width="1.5"></path>
        <path d="M514.14 260.24L492.48 525.44" stroke="#132e65" stroke-width="1.5"></path>
        <path d="M492.48 525.44L492.48 525.44" stroke="#132e65" stroke-width="1.5"></path>
        <path d="M492.48 525.44L679.95 527.77" stroke="#132e65" stroke-width="1.5"></path>
        <path d="M660.69 253.57L660.69 253.57" stroke="#132e65" stroke-width="1.5"></path>
        <path d="M660.69 253.57L788.86 215.92" stroke="#132e65" stroke-width="1.5"></path>
        <path d="M660.69 253.57L654.25 402.61" stroke="#132e65" stroke-width="1.5"></path>
        <path d="M654.25 402.61L654.25 402.61" stroke="#132e65" stroke-width="1.5"></path>
        <path d="M654.25 402.61L679.95 527.77" stroke="#132e65" stroke-width="1.5"></path>
        <path d="M654.25 402.61L822.68 370.15" stroke="#132e65" stroke-width="1.5"></path>
        <path d="M679.95 527.77L679.95 527.77" stroke="#132e65" stroke-width="1.5"></path>
        <path d="M679.95 527.77L842.22 526.44" stroke="#132e65" stroke-width="1.5"></path>
        <path d="M679.95 527.77L822.68 370.15" stroke="#132e65" stroke-width="1.5"></path>
        <path d="M679.95 527.77L954.76 526.4" stroke="#132e65" stroke-width="1.5"></path>
        <path d="M788.86 215.92L788.86 215.92" stroke="#132e65" stroke-width="1.5"></path>
        <path d="M788.86 215.92L822.68 370.15" stroke="#132e65" stroke-width="1.5"></path>
        <path d="M788.86 215.92L976.4 191.97" stroke="#132e65" stroke-width="1.5"></path>
        <path d="M822.68 370.15L822.68 370.15" stroke="#132e65" stroke-width="1.5"></path>
        <path d="M822.68 370.15L842.22 526.44" stroke="#132e65" stroke-width="1.5"></path>
        <path d="M842.22 526.44L842.22 526.44" stroke="#132e65" stroke-width="1.5"></path>
        <path d="M842.22 526.44L954.76 526.4" stroke="#132e65" stroke-width="1.5"></path>
        <path d="M842.22 526.44L996.31 374.03" stroke="#132e65" stroke-width="1.5"></path>
        <path d="M842.22 526.44L654.25 402.61" stroke="#132e65" stroke-width="1.5"></path>
        <path d="M976.4 191.97L976.4 191.97" stroke="#132e65" stroke-width="1.5"></path>
        <path d="M976.4 191.97L996.31 374.03" stroke="#132e65" stroke-width="1.5"></path>
        <path d="M976.4 191.97L1107.37 372.17" stroke="#132e65" stroke-width="1.5"></path>
        <path d="M976.4 191.97L1144.23 43.02" stroke="#132e65" stroke-width="1.5"></path>
        <path d="M976.4 191.97L822.68 370.15" stroke="#132e65" stroke-width="1.5"></path>
        <path d="M996.31 374.03L996.31 374.03" stroke="#132e65" stroke-width="1.5"></path>
        <path d="M996.31 374.03L1107.37 372.17" stroke="#132e65" stroke-width="1.5"></path>
        <path d="M996.31 374.03L954.76 526.4" stroke="#132e65" stroke-width="1.5"></path>
        <path d="M954.76 526.4L954.76 526.4" stroke="#132e65" stroke-width="1.5"></path>
        <path d="M954.76 526.4L1107.98 555.04" stroke="#132e65" stroke-width="1.5"></path>
        <path d="M954.76 526.4L822.68 370.15" stroke="#132e65" stroke-width="1.5"></path>
        <path d="M954.76 526.4L1107.37 372.17" stroke="#132e65" stroke-width="1.5"></path>
        <path d="M1144.23 43.02L1144.23 43.02" stroke="#132e65" stroke-width="1.5"></path>
        <path d="M1144.23 43.02L1274.35 80.98" stroke="#132e65" stroke-width="1.5"></path>
        <path d="M1144.23 43.02L1275.54 -67.39" stroke="#132e65" stroke-width="1.5"></path>
        <path d="M1144.23 43.02L1272.7 191.88" stroke="#132e65" stroke-width="1.5"></path>
        <path d="M1144.23 43.02L1392.05 101.31" stroke="#132e65" stroke-width="1.5"></path>
        <path d="M1107.37 372.17L1107.37 372.17" stroke="#132e65" stroke-width="1.5"></path>
        <path d="M1107.37 372.17L1271.24 353.46" stroke="#132e65" stroke-width="1.5"></path>
        <path d="M1107.37 372.17L1107.98 555.04" stroke="#132e65" stroke-width="1.5"></path>
        <path d="M1107.98 555.04L1107.98 555.04" stroke="#132e65" stroke-width="1.5"></path>
        <path d="M1107.98 555.04L1281.13 513.97" stroke="#132e65" stroke-width="1.5"></path>
        <path d="M1107.98 555.04L996.31 374.03" stroke="#132e65" stroke-width="1.5"></path>
        <path d="M1107.98 555.04L1271.24 353.46" stroke="#132e65" stroke-width="1.5"></path>
        <path d="M1107.98 555.04L842.22 526.44" stroke="#132e65" stroke-width="1.5"></path>
        <path d="M1275.54 -67.39L1275.54 -67.39" stroke="#132e65" stroke-width="1.5"></path>
        <path d="M1275.54 -67.39L1392.39 -103.81" stroke="#132e65" stroke-width="1.5"></path>
        <path d="M1275.54 -67.39L1274.35 80.98" stroke="#132e65" stroke-width="1.5"></path>
        <path d="M1274.35 80.98L1274.35 80.98" stroke="#132e65" stroke-width="1.5"></path>
        <path d="M1274.35 80.98L1272.7 191.88" stroke="#132e65" stroke-width="1.5"></path>
        <path d="M1274.35 80.98L1392.05 101.31" stroke="#132e65" stroke-width="1.5"></path>
        <path d="M1272.7 191.88L1272.7 191.88" stroke="#132e65" stroke-width="1.5"></path>
        <path d="M1272.7 191.88L1392.05 101.31" stroke="#132e65" stroke-width="1.5"></path>
        <path d="M1272.7 191.88L1271.24 353.46" stroke="#132e65" stroke-width="1.5"></path>
        <path d="M1272.7 191.88L1436.12 215.63" stroke="#132e65" stroke-width="1.5"></path>
        <path d="M1271.24 353.46L1271.24 353.46" stroke="#132e65" stroke-width="1.5"></path>
        <path d="M1271.24 353.46L1407.88 362.87" stroke="#132e65" stroke-width="1.5"></path>
        <path d="M1271.24 353.46L1281.13 513.97" stroke="#132e65" stroke-width="1.5"></path>
        <path d="M1281.13 513.97L1281.13 513.97" stroke="#132e65" stroke-width="1.5"></path>
        <path d="M1281.13 513.97L1429.99 516.9" stroke="#132e65" stroke-width="1.5"></path>
        <path d="M1392.39 -103.81L1392.39 -103.81" stroke="#132e65" stroke-width="1.5"></path>
        <path d="M1392.39 -103.81L1580.29 -55.9" stroke="#132e65" stroke-width="1.5"></path>
        <path d="M1392.39 -103.81L1392.05 101.31" stroke="#132e65" stroke-width="1.5"></path>
        <path d="M1392.39 -103.81L1274.35 80.98" stroke="#132e65" stroke-width="1.5"></path>
        <path d="M1392.05 101.31L1392.05 101.31" stroke="#132e65" stroke-width="1.5"></path>
        <path d="M1392.05 101.31L1436.12 215.63" stroke="#132e65" stroke-width="1.5"></path>
        <path d="M1436.12 215.63L1436.12 215.63" stroke="#132e65" stroke-width="1.5"></path>
        <path d="M1436.12 215.63L1407.88 362.87" stroke="#132e65" stroke-width="1.5"></path>
        <path d="M1436.12 215.63L1567.02 109.17" stroke="#132e65" stroke-width="1.5"></path>
        <path d="M1436.12 215.63L1605.45 240.99" stroke="#132e65" stroke-width="1.5"></path>
        <path d="M1407.88 362.87L1407.88 362.87" stroke="#132e65" stroke-width="1.5"></path>
        <path d="M1407.88 362.87L1548.26 350.88" stroke="#132e65" stroke-width="1.5"></path>
        <path d="M1407.88 362.87L1429.99 516.9" stroke="#132e65" stroke-width="1.5"></path>
        <path d="M1407.88 362.87L1281.13 513.97" stroke="#132e65" stroke-width="1.5"></path>
        <path d="M1429.99 516.9L1429.99 516.9" stroke="#132e65" stroke-width="1.5"></path>
        <path d="M1429.99 516.9L1602.61 514.2" stroke="#132e65" stroke-width="1.5"></path>
        <path d="M1429.99 516.9L1548.26 350.88" stroke="#132e65" stroke-width="1.5"></path>
        <path d="M1429.99 516.9L1271.24 353.46" stroke="#132e65" stroke-width="1.5"></path>
        <path d="M1429.99 516.9L1436.12 215.63" stroke="#132e65" stroke-width="1.5"></path>
        <path d="M1580.29 -55.9L1580.29 -55.9" stroke="#132e65" stroke-width="1.5"></path>
        <path d="M1580.29 -55.9L1730.9 -107.13" stroke="#132e65" stroke-width="1.5"></path>
        <path d="M1580.29 -55.9L1567.02 109.17" stroke="#132e65" stroke-width="1.5"></path>
        <path d="M1580.29 -55.9L1720.4 57.08" stroke="#132e65" stroke-width="1.5"></path>
        <path d="M1567.02 109.17L1567.02 109.17" stroke="#132e65" stroke-width="1.5"></path>
        <path d="M1567.02 109.17L1605.45 240.99" stroke="#132e65" stroke-width="1.5"></path>
        <path d="M1567.02 109.17L1720.4 57.08" stroke="#132e65" stroke-width="1.5"></path>
        <path d="M1567.02 109.17L1392.05 101.31" stroke="#132e65" stroke-width="1.5"></path>
        <path d="M1605.45 240.99L1605.45 240.99" stroke="#132e65" stroke-width="1.5"></path>
        <path d="M1605.45 240.99L1548.26 350.88" stroke="#132e65" stroke-width="1.5"></path>
        <path d="M1548.26 350.88L1548.26 350.88" stroke="#132e65" stroke-width="1.5"></path>
        <path d="M1548.26 350.88L1691.99 367.18" stroke="#132e65" stroke-width="1.5"></path>
        <path d="M1548.26 350.88L1602.61 514.2" stroke="#132e65" stroke-width="1.5"></path>
        <path d="M1548.26 350.88L1436.12 215.63" stroke="#132e65" stroke-width="1.5"></path>
        <path d="M1602.61 514.2L1602.61 514.2" stroke="#132e65" stroke-width="1.5"></path>
        <path d="M1602.61 514.2L1754.48 507.34" stroke="#132e65" stroke-width="1.5"></path>
        <path d="M1602.61 514.2L1691.99 367.18" stroke="#132e65" stroke-width="1.5"></path>
        <path d="M1730.9 -107.13L1730.9 -107.13" stroke="#132e65" stroke-width="1.5"></path>
        <path d="M1730.9 -107.13L1891.01 -84.67" stroke="#132e65" stroke-width="1.5"></path>
        <path d="M1730.9 -107.13L1720.4 57.08" stroke="#132e65" stroke-width="1.5"></path>
        <path d="M1730.9 -107.13L1866.1 71.98" stroke="#132e65" stroke-width="1.5"></path>
        <path d="M1730.9 -107.13L1567.02 109.17" stroke="#132e65" stroke-width="1.5"></path>
        <path d="M1720.4 57.08L1720.4 57.08" stroke="#132e65" stroke-width="1.5"></path>
        <path d="M1720.4 57.08L1866.1 71.98" stroke="#132e65" stroke-width="1.5"></path>
        <path d="M1691.99 367.18L1691.99 367.18" stroke="#132e65" stroke-width="1.5"></path>
        <path d="M1691.99 367.18L1605.45 240.99" stroke="#132e65" stroke-width="1.5"></path>
        <path d="M1691.99 367.18L1754.48 507.34" stroke="#132e65" stroke-width="1.5"></path>
        <path d="M1754.48 507.34L1754.48 507.34" stroke="#132e65" stroke-width="1.5"></path>
        <path d="M1754.48 507.34L1857.04 499.67" stroke="#132e65" stroke-width="1.5"></path>
        <path d="M1891.01 -84.67L1891.01 -84.67" stroke="#132e65" stroke-width="1.5"></path>
        <path d="M1891.01 -84.67L2025.67 -103.68" stroke="#132e65" stroke-width="1.5"></path>
        <path d="M1891.01 -84.67L1866.1 71.98" stroke="#132e65" stroke-width="1.5"></path>
        <path d="M1866.1 71.98L1866.1 71.98" stroke="#132e65" stroke-width="1.5"></path>
        <path d="M1866.1 71.98L1988.85 95.66" stroke="#132e65" stroke-width="1.5"></path>
        <path d="M1866.1 71.98L1883.77 209.57" stroke="#132e65" stroke-width="1.5"></path>
        <path d="M1883.77 209.57L1883.77 209.57" stroke="#132e65" stroke-width="1.5"></path>
        <path d="M1883.77 209.57L1988.85 95.66" stroke="#132e65" stroke-width="1.5"></path>
        <path d="M1878.95 409.56L1878.95 409.56" stroke="#132e65" stroke-width="1.5"></path>
        <path d="M1878.95 409.56L1857.04 499.67" stroke="#132e65" stroke-width="1.5"></path>
        <path d="M1878.95 409.56L1754.48 507.34" stroke="#132e65" stroke-width="1.5"></path>
        <path d="M1857.04 499.67L1857.04 499.67" stroke="#132e65" stroke-width="1.5"></path>
        <path d="M1857.04 499.67L2002.72 545.08" stroke="#132e65" stroke-width="1.5"></path>
        <path d="M1857.04 499.67L1691.99 367.18" stroke="#132e65" stroke-width="1.5"></path>
        <path d="M1857.04 499.67L2049.84 342.64" stroke="#132e65" stroke-width="1.5"></path>
        <path d="M2025.67 -103.68L2025.67 -103.68" stroke="#132e65" stroke-width="1.5"></path>
        <path d="M2025.67 -103.68L1988.85 95.66" stroke="#132e65" stroke-width="1.5"></path>
        <path d="M2025.67 -103.68L1866.1 71.98" stroke="#132e65" stroke-width="1.5"></path>
        <path d="M2025.67 -103.68L1730.9 -107.13" stroke="#132e65" stroke-width="1.5"></path>
        <path d="M1988.85 95.66L1988.85 95.66" stroke="#132e65" stroke-width="1.5"></path>
        <path d="M1988.85 95.66L2040.92 234.24" stroke="#132e65" stroke-width="1.5"></path>
        <path d="M2040.92 234.24L2040.92 234.24" stroke="#132e65" stroke-width="1.5"></path>
        <path d="M2040.92 234.24L2049.84 342.64" stroke="#132e65" stroke-width="1.5"></path>
        <path d="M2040.92 234.24L1883.77 209.57" stroke="#132e65" stroke-width="1.5"></path>
        <path d="M2040.92 234.24L1866.1 71.98" stroke="#132e65" stroke-width="1.5"></path>
        <path d="M2040.92 234.24L1878.95 409.56" stroke="#132e65" stroke-width="1.5"></path>
        <path d="M2049.84 342.64L2049.84 342.64" stroke="#132e65" stroke-width="1.5"></path>
        <path d="M2049.84 342.64L1878.95 409.56" stroke="#132e65" stroke-width="1.5"></path>
        <path d="M2049.84 342.64L2002.72 545.08" stroke="#132e65" stroke-width="1.5"></path>
        <path d="M2049.84 342.64L1883.77 209.57" stroke="#132e65" stroke-width="1.5"></path>
        <path d="M2049.84 342.64L1988.85 95.66" stroke="#132e65" stroke-width="1.5"></path>
        <path d="M2002.72 545.08L2002.72 545.08" stroke="#132e65" stroke-width="1.5"></path>
        <path d="M2002.72 545.08L1878.95 409.56" stroke="#132e65" stroke-width="1.5"></path>
        <circle r="5" cx="-90.1" cy="355.46" fill="#132e65"></circle>
        <circle r="5" cx="-38.59" cy="512.04" fill="#132e65"></circle>
        <circle r="5" cx="58.67" cy="378.34" fill="#132e65"></circle>
        <circle r="5" cx="78.45" cy="549.03" fill="#132e65"></circle>
        <circle r="5" cx="225.21" cy="382.45" fill="#132e65"></circle>
        <circle r="5" cx="352.98" cy="404.24" fill="#132e65"></circle>
        <circle r="5" cx="349.53" cy="499.08" fill="#132e65"></circle>
        <circle r="5" cx="514.14" cy="260.24" fill="#132e65"></circle>
        <circle r="5" cx="492.48" cy="525.44" fill="#132e65"></circle>
        <circle r="5" cx="660.69" cy="253.57" fill="#132e65"></circle>
        <circle r="5" cx="654.25" cy="402.61" fill="#132e65"></circle>
        <circle r="5" cx="679.95" cy="527.77" fill="#132e65"></circle>
        <circle r="5" cx="788.86" cy="215.92" fill="#132e65"></circle>
        <circle r="5" cx="822.68" cy="370.15" fill="#132e65"></circle>
        <circle r="5" cx="842.22" cy="526.44" fill="#132e65"></circle>
        <circle r="5" cx="976.4" cy="191.97" fill="#132e65"></circle>
        <circle r="5" cx="996.31" cy="374.03" fill="#132e65"></circle>
        <circle r="5" cx="954.76" cy="526.4" fill="#132e65"></circle>
        <circle r="5" cx="1144.23" cy="43.02" fill="#132e65"></circle>
        <circle r="5" cx="1107.37" cy="372.17" fill="#132e65"></circle>
        <circle r="5" cx="1107.98" cy="555.04" fill="#132e65"></circle>
        <circle r="5" cx="1275.54" cy="-67.39" fill="#132e65"></circle>
        <circle r="5" cx="1274.35" cy="80.98" fill="#132e65"></circle>
        <circle r="5" cx="1272.7" cy="191.88" fill="#132e65"></circle>
        <circle r="5" cx="1271.24" cy="353.46" fill="#132e65"></circle>
        <circle r="5" cx="1281.13" cy="513.97" fill="#132e65"></circle>
        <circle r="5" cx="1392.39" cy="-103.81" fill="#132e65"></circle>
        <circle r="5" cx="1392.05" cy="101.31" fill="#132e65"></circle>
        <circle r="5" cx="1436.12" cy="215.63" fill="#132e65"></circle>
        <circle r="5" cx="1407.88" cy="362.87" fill="#132e65"></circle>
        <circle r="5" cx="1429.99" cy="516.9" fill="#132e65"></circle>
        <circle r="5" cx="1580.29" cy="-55.9" fill="#132e65"></circle>
        <circle r="5" cx="1567.02" cy="109.17" fill="#132e65"></circle>
        <circle r="5" cx="1605.45" cy="240.99" fill="#132e65"></circle>
        <circle r="5" cx="1548.26" cy="350.88" fill="#132e65"></circle>
        <circle r="5" cx="1602.61" cy="514.2" fill="#132e65"></circle>
        <circle r="5" cx="1730.9" cy="-107.13" fill="#132e65"></circle>
        <circle r="5" cx="1720.4" cy="57.08" fill="#132e65"></circle>
        <circle r="5" cx="1691.99" cy="367.18" fill="#132e65"></circle>
        <circle r="5" cx="1754.48" cy="507.34" fill="#132e65"></circle>
        <circle r="5" cx="1891.01" cy="-84.67" fill="#132e65"></circle>
        <circle r="5" cx="1866.1" cy="71.98" fill="#132e65"></circle>
        <circle r="5" cx="1883.77" cy="209.57" fill="#132e65"></circle>
        <circle r="5" cx="1878.95" cy="409.56" fill="#132e65"></circle>
        <circle r="5" cx="1857.04" cy="499.67" fill="#132e65"></circle>
        <circle r="5" cx="2025.67" cy="-103.68" fill="#132e65"></circle>
        <circle r="5" cx="1988.85" cy="95.66" fill="#132e65"></circle>
        <circle r="5" cx="2040.92" cy="234.24" fill="#132e65"></circle>
        <circle r="5" cx="2049.84" cy="342.64" fill="#132e65"></circle>
        <circle r="5" cx="2002.72" cy="545.08" fill="#132e65"></circle>
        <path d="M72.43 410.08L72.43 410.08" stroke="hsl(228.5, 77.2%, 51.5%)" stroke-width="1.5"></path>
        <path d="M72.43 410.08L88.63 506.09" stroke="hsl(228.5, 77.2%, 51.5%)" stroke-width="1.5"></path>
        <path d="M72.43 410.08L258.36 386.13" stroke="hsl(228.5, 77.2%, 51.5%)" stroke-width="1.5"></path>
        <path d="M72.43 410.08L-108.16 489.99" stroke="hsl(228.5, 77.2%, 51.5%)" stroke-width="1.5"></path>
        <path d="M72.43 410.08L232.89 560.5" stroke="hsl(228.5, 77.2%, 51.5%)" stroke-width="1.5"></path>
        <path d="M232.89 560.5L232.89 560.5" stroke="hsl(228.5, 77.2%, 51.5%)" stroke-width="1.5"></path>
        <path d="M232.89 560.5L339.09 503.73" stroke="hsl(228.5, 77.2%, 51.5%)" stroke-width="1.5"></path>
        <path d="M831.78 521.05L831.78 521.05" stroke="hsl(228.5, 77.2%, 51.5%)" stroke-width="1.5"></path>
        <path d="M831.78 521.05L814.97 399.2" stroke="hsl(228.5, 77.2%, 51.5%)" stroke-width="1.5"></path>
        <path d="M831.78 521.05L971.9 521.07" stroke="hsl(228.5, 77.2%, 51.5%)" stroke-width="1.5"></path>
        <path d="M831.78 521.05L681.01 534.67" stroke="hsl(228.5, 77.2%, 51.5%)" stroke-width="1.5"></path>
        <path d="M1906.78 95.97L1906.78 95.97" stroke="hsl(228.5, 77.2%, 51.5%)" stroke-width="1.5"></path>
        <path d="M1906.78 95.97L1901.61 220.56" stroke="hsl(228.5, 77.2%, 51.5%)" stroke-width="1.5"></path>
        <path d="M1906.78 95.97L2017.21 191.15" stroke="hsl(228.5, 77.2%, 51.5%)" stroke-width="1.5"></path>
        <path d="M1906.78 95.97L2000.46 -42.8" stroke="hsl(228.5, 77.2%, 51.5%)" stroke-width="1.5"></path>
        <path d="M1906.78 95.97L1709.58 64.8" stroke="hsl(228.5, 77.2%, 51.5%)" stroke-width="1.5"></path>
        <path d="M-108.16 489.99L-108.16 489.99" stroke="hsl(228.5, 77.2%, 51.5%)" stroke-width="1.5"></path>
        <path d="M-108.16 489.99L88.63 506.09" stroke="hsl(228.5, 77.2%, 51.5%)" stroke-width="1.5"></path>
        <path d="M88.63 506.09L88.63 506.09" stroke="hsl(228.5, 77.2%, 51.5%)" stroke-width="1.5"></path>
        <path d="M88.63 506.09L232.89 560.5" stroke="hsl(228.5, 77.2%, 51.5%)" stroke-width="1.5"></path>
        <path d="M88.63 506.09L258.36 386.13" stroke="hsl(228.5, 77.2%, 51.5%)" stroke-width="1.5"></path>
        <path d="M258.36 386.13L258.36 386.13" stroke="hsl(228.5, 77.2%, 51.5%)" stroke-width="1.5"></path>
        <path d="M258.36 386.13L339.09 503.73" stroke="hsl(228.5, 77.2%, 51.5%)" stroke-width="1.5"></path>
        <path d="M258.36 386.13L405.6 390.99" stroke="hsl(228.5, 77.2%, 51.5%)" stroke-width="1.5"></path>
        <path d="M258.36 386.13L232.89 560.5" stroke="hsl(228.5, 77.2%, 51.5%)" stroke-width="1.5"></path>
        <path d="M405.6 390.99L405.6 390.99" stroke="hsl(228.5, 77.2%, 51.5%)" stroke-width="1.5"></path>
        <path d="M405.6 390.99L507.88 339.18" stroke="hsl(228.5, 77.2%, 51.5%)" stroke-width="1.5"></path>
        <path d="M405.6 390.99L339.09 503.73" stroke="hsl(228.5, 77.2%, 51.5%)" stroke-width="1.5"></path>
        <path d="M339.09 503.73L339.09 503.73" stroke="hsl(228.5, 77.2%, 51.5%)" stroke-width="1.5"></path>
        <path d="M339.09 503.73L507.88 339.18" stroke="hsl(228.5, 77.2%, 51.5%)" stroke-width="1.5"></path>
        <path d="M339.09 503.73L88.63 506.09" stroke="hsl(228.5, 77.2%, 51.5%)" stroke-width="1.5"></path>
        <path d="M339.09 503.73L72.43 410.08" stroke="hsl(228.5, 77.2%, 51.5%)" stroke-width="1.5"></path>
        <path d="M507.88 339.18L507.88 339.18" stroke="hsl(228.5, 77.2%, 51.5%)" stroke-width="1.5"></path>
        <path d="M507.88 339.18L705.11 368.63" stroke="hsl(228.5, 77.2%, 51.5%)" stroke-width="1.5"></path>
        <path d="M705.11 368.63L705.11 368.63" stroke="hsl(228.5, 77.2%, 51.5%)" stroke-width="1.5"></path>
        <path d="M705.11 368.63L814.97 399.2" stroke="hsl(228.5, 77.2%, 51.5%)" stroke-width="1.5"></path>
        <path d="M705.11 368.63L681.01 534.67" stroke="hsl(228.5, 77.2%, 51.5%)" stroke-width="1.5"></path>
        <path d="M705.11 368.63L831.78 521.05" stroke="hsl(228.5, 77.2%, 51.5%)" stroke-width="1.5"></path>
        <path d="M705.11 368.63L954.2 409.63" stroke="hsl(228.5, 77.2%, 51.5%)" stroke-width="1.5"></path>
        <path d="M681.01 534.67L681.01 534.67" stroke="hsl(228.5, 77.2%, 51.5%)" stroke-width="1.5"></path>
        <path d="M814.97 399.2L814.97 399.2" stroke="hsl(228.5, 77.2%, 51.5%)" stroke-width="1.5"></path>
        <path d="M814.97 399.2L954.2 409.63" stroke="hsl(228.5, 77.2%, 51.5%)" stroke-width="1.5"></path>
        <path d="M814.97 399.2L681.01 534.67" stroke="hsl(228.5, 77.2%, 51.5%)" stroke-width="1.5"></path>
        <path d="M814.97 399.2L971.9 521.07" stroke="hsl(228.5, 77.2%, 51.5%)" stroke-width="1.5"></path>
        <path d="M814.97 399.2L507.88 339.18" stroke="hsl(228.5, 77.2%, 51.5%)" stroke-width="1.5"></path>
        <path d="M954.2 409.63L954.2 409.63" stroke="hsl(228.5, 77.2%, 51.5%)" stroke-width="1.5"></path>
        <path d="M954.2 409.63L971.9 521.07" stroke="hsl(228.5, 77.2%, 51.5%)" stroke-width="1.5"></path>
        <path d="M954.2 409.63L831.78 521.05" stroke="hsl(228.5, 77.2%, 51.5%)" stroke-width="1.5"></path>
        <path d="M954.2 409.63L1119.96 504.73" stroke="hsl(228.5, 77.2%, 51.5%)" stroke-width="1.5"></path>
        <path d="M954.2 409.63L1146.88 405.69" stroke="hsl(228.5, 77.2%, 51.5%)" stroke-width="1.5"></path>
        <path d="M971.9 521.07L971.9 521.07" stroke="hsl(228.5, 77.2%, 51.5%)" stroke-width="1.5"></path>
        <path d="M971.9 521.07L1119.96 504.73" stroke="hsl(228.5, 77.2%, 51.5%)" stroke-width="1.5"></path>
        <path d="M1146.88 405.69L1146.88 405.69" stroke="hsl(228.5, 77.2%, 51.5%)" stroke-width="1.5"></path>
        <path d="M1146.88 405.69L1119.96 504.73" stroke="hsl(228.5, 77.2%, 51.5%)" stroke-width="1.5"></path>
        <path d="M1146.88 405.69L1264.56 391.64" stroke="hsl(228.5, 77.2%, 51.5%)" stroke-width="1.5"></path>
        <path d="M1146.88 405.69L1275.05 514.33" stroke="hsl(228.5, 77.2%, 51.5%)" stroke-width="1.5"></path>
        <path d="M1146.88 405.69L971.9 521.07" stroke="hsl(228.5, 77.2%, 51.5%)" stroke-width="1.5"></path>
        <path d="M1146.88 405.69L1287.81 216.74" stroke="hsl(228.5, 77.2%, 51.5%)" stroke-width="1.5"></path>
        <path d="M1119.96 504.73L1119.96 504.73" stroke="hsl(228.5, 77.2%, 51.5%)" stroke-width="1.5"></path>
        <path d="M1119.96 504.73L1275.05 514.33" stroke="hsl(228.5, 77.2%, 51.5%)" stroke-width="1.5"></path>
        <path d="M1119.96 504.73L1264.56 391.64" stroke="hsl(228.5, 77.2%, 51.5%)" stroke-width="1.5"></path>
        <path d="M1119.96 504.73L1408.33 509.26" stroke="hsl(228.5, 77.2%, 51.5%)" stroke-width="1.5"></path>
        <path d="M1287.81 216.74L1287.81 216.74" stroke="hsl(228.5, 77.2%, 51.5%)" stroke-width="1.5"></path>
        <path d="M1287.81 216.74L1445.44 223.49" stroke="hsl(228.5, 77.2%, 51.5%)" stroke-width="1.5"></path>
        <path d="M1287.81 216.74L1264.56 391.64" stroke="hsl(228.5, 77.2%, 51.5%)" stroke-width="1.5"></path>
        <path d="M1287.81 216.74L1439.09 354.97" stroke="hsl(228.5, 77.2%, 51.5%)" stroke-width="1.5"></path>
        <path d="M1264.56 391.64L1264.56 391.64" stroke="hsl(228.5, 77.2%, 51.5%)" stroke-width="1.5"></path>
        <path d="M1264.56 391.64L1275.05 514.33" stroke="hsl(228.5, 77.2%, 51.5%)" stroke-width="1.5"></path>
        <path d="M1264.56 391.64L1439.09 354.97" stroke="hsl(228.5, 77.2%, 51.5%)" stroke-width="1.5"></path>
        <path d="M1275.05 514.33L1275.05 514.33" stroke="hsl(228.5, 77.2%, 51.5%)" stroke-width="1.5"></path>
        <path d="M1275.05 514.33L1408.33 509.26" stroke="hsl(228.5, 77.2%, 51.5%)" stroke-width="1.5"></path>
        <path d="M1275.05 514.33L1439.09 354.97" stroke="hsl(228.5, 77.2%, 51.5%)" stroke-width="1.5"></path>
        <path d="M1275.05 514.33L1556.6 527.98" stroke="hsl(228.5, 77.2%, 51.5%)" stroke-width="1.5"></path>
        <path d="M1445.44 223.49L1445.44 223.49" stroke="hsl(228.5, 77.2%, 51.5%)" stroke-width="1.5"></path>
        <path d="M1445.44 223.49L1537.64 243.68" stroke="hsl(228.5, 77.2%, 51.5%)" stroke-width="1.5"></path>
        <path d="M1445.44 223.49L1439.09 354.97" stroke="hsl(228.5, 77.2%, 51.5%)" stroke-width="1.5"></path>
        <path d="M1439.09 354.97L1439.09 354.97" stroke="hsl(228.5, 77.2%, 51.5%)" stroke-width="1.5"></path>
        <path d="M1439.09 354.97L1537.64 243.68" stroke="hsl(228.5, 77.2%, 51.5%)" stroke-width="1.5"></path>
        <path d="M1439.09 354.97L1588.03 398.93" stroke="hsl(228.5, 77.2%, 51.5%)" stroke-width="1.5"></path>
        <path d="M1439.09 354.97L1408.33 509.26" stroke="hsl(228.5, 77.2%, 51.5%)" stroke-width="1.5"></path>
        <path d="M1408.33 509.26L1408.33 509.26" stroke="hsl(228.5, 77.2%, 51.5%)" stroke-width="1.5"></path>
        <path d="M1408.33 509.26L1556.6 527.98" stroke="hsl(228.5, 77.2%, 51.5%)" stroke-width="1.5"></path>
        <path d="M1408.33 509.26L1264.56 391.64" stroke="hsl(228.5, 77.2%, 51.5%)" stroke-width="1.5"></path>
        <path d="M1408.33 509.26L1588.03 398.93" stroke="hsl(228.5, 77.2%, 51.5%)" stroke-width="1.5"></path>
        <path d="M1408.33 509.26L1146.88 405.69" stroke="hsl(228.5, 77.2%, 51.5%)" stroke-width="1.5"></path>
        <path d="M1567.47 -73.39L1567.47 -73.39" stroke="hsl(228.5, 77.2%, 51.5%)" stroke-width="1.5"></path>
        <path d="M1567.47 -73.39L1608.22 67.14" stroke="hsl(228.5, 77.2%, 51.5%)" stroke-width="1.5"></path>
        <path d="M1567.47 -73.39L1759 -49.87" stroke="hsl(228.5, 77.2%, 51.5%)" stroke-width="1.5"></path>
        <path d="M1567.47 -73.39L1709.58 64.8" stroke="hsl(228.5, 77.2%, 51.5%)" stroke-width="1.5"></path>
        <path d="M1567.47 -73.39L1537.64 243.68" stroke="hsl(228.5, 77.2%, 51.5%)" stroke-width="1.5"></path>
        <path d="M1608.22 67.14L1608.22 67.14" stroke="hsl(228.5, 77.2%, 51.5%)" stroke-width="1.5"></path>
        <path d="M1608.22 67.14L1709.58 64.8" stroke="hsl(228.5, 77.2%, 51.5%)" stroke-width="1.5"></path>
        <path d="M1608.22 67.14L1537.64 243.68" stroke="hsl(228.5, 77.2%, 51.5%)" stroke-width="1.5"></path>
        <path d="M1608.22 67.14L1759 -49.87" stroke="hsl(228.5, 77.2%, 51.5%)" stroke-width="1.5"></path>
        <path d="M1537.64 243.68L1537.64 243.68" stroke="hsl(228.5, 77.2%, 51.5%)" stroke-width="1.5"></path>
        <path d="M1588.03 398.93L1588.03 398.93" stroke="hsl(228.5, 77.2%, 51.5%)" stroke-width="1.5"></path>
        <path d="M1588.03 398.93L1556.6 527.98" stroke="hsl(228.5, 77.2%, 51.5%)" stroke-width="1.5"></path>
        <path d="M1588.03 398.93L1537.64 243.68" stroke="hsl(228.5, 77.2%, 51.5%)" stroke-width="1.5"></path>
        <path d="M1588.03 398.93L1445.44 223.49" stroke="hsl(228.5, 77.2%, 51.5%)" stroke-width="1.5"></path>
        <path d="M1556.6 527.98L1556.6 527.98" stroke="hsl(228.5, 77.2%, 51.5%)" stroke-width="1.5"></path>
        <path d="M1759 -49.87L1759 -49.87" stroke="hsl(228.5, 77.2%, 51.5%)" stroke-width="1.5"></path>
        <path d="M1759 -49.87L1709.58 64.8" stroke="hsl(228.5, 77.2%, 51.5%)" stroke-width="1.5"></path>
        <path d="M1759 -49.87L1906.78 95.97" stroke="hsl(228.5, 77.2%, 51.5%)" stroke-width="1.5"></path>
        <path d="M1709.58 64.8L1709.58 64.8" stroke="hsl(228.5, 77.2%, 51.5%)" stroke-width="1.5"></path>
        <path d="M1709.58 64.8L1735.24 220.25" stroke="hsl(228.5, 77.2%, 51.5%)" stroke-width="1.5"></path>
        <path d="M1709.58 64.8L1901.61 220.56" stroke="hsl(228.5, 77.2%, 51.5%)" stroke-width="1.5"></path>
        <path d="M1735.24 220.25L1735.24 220.25" stroke="hsl(228.5, 77.2%, 51.5%)" stroke-width="1.5"></path>
        <path d="M1735.24 220.25L1901.61 220.56" stroke="hsl(228.5, 77.2%, 51.5%)" stroke-width="1.5"></path>
        <path d="M1735.24 220.25L1608.22 67.14" stroke="hsl(228.5, 77.2%, 51.5%)" stroke-width="1.5"></path>
        <path d="M1735.24 220.25L1537.64 243.68" stroke="hsl(228.5, 77.2%, 51.5%)" stroke-width="1.5"></path>
        <path d="M1756.5 554.83L1756.5 554.83" stroke="hsl(228.5, 77.2%, 51.5%)" stroke-width="1.5"></path>
        <path d="M1756.5 554.83L1871.25 488.78" stroke="hsl(228.5, 77.2%, 51.5%)" stroke-width="1.5"></path>
        <path d="M1756.5 554.83L1556.6 527.98" stroke="hsl(228.5, 77.2%, 51.5%)" stroke-width="1.5"></path>
        <path d="M1756.5 554.83L1588.03 398.93" stroke="hsl(228.5, 77.2%, 51.5%)" stroke-width="1.5"></path>
        <path d="M1756.5 554.83L1910.39 375.8" stroke="hsl(228.5, 77.2%, 51.5%)" stroke-width="1.5"></path>
        <path d="M1756.5 554.83L2058.14 531.51" stroke="hsl(228.5, 77.2%, 51.5%)" stroke-width="1.5"></path>
        <path d="M1901.61 220.56L1901.61 220.56" stroke="hsl(228.5, 77.2%, 51.5%)" stroke-width="1.5"></path>
        <path d="M1901.61 220.56L2017.21 191.15" stroke="hsl(228.5, 77.2%, 51.5%)" stroke-width="1.5"></path>
        <path d="M1901.61 220.56L1910.39 375.8" stroke="hsl(228.5, 77.2%, 51.5%)" stroke-width="1.5"></path>
        <path d="M1910.39 375.8L1910.39 375.8" stroke="hsl(228.5, 77.2%, 51.5%)" stroke-width="1.5"></path>
        <path d="M1910.39 375.8L2016.96 370.69" stroke="hsl(228.5, 77.2%, 51.5%)" stroke-width="1.5"></path>
        <path d="M1910.39 375.8L1871.25 488.78" stroke="hsl(228.5, 77.2%, 51.5%)" stroke-width="1.5"></path>
        <path d="M1871.25 488.78L1871.25 488.78" stroke="hsl(228.5, 77.2%, 51.5%)" stroke-width="1.5"></path>
        <path d="M1871.25 488.78L2016.96 370.69" stroke="hsl(228.5, 77.2%, 51.5%)" stroke-width="1.5"></path>
        <path d="M1871.25 488.78L2058.14 531.51" stroke="hsl(228.5, 77.2%, 51.5%)" stroke-width="1.5"></path>
        <path d="M2000.46 -42.8L2000.46 -42.8" stroke="hsl(228.5, 77.2%, 51.5%)" stroke-width="1.5"></path>
        <path d="M2017.21 191.15L2017.21 191.15" stroke="hsl(228.5, 77.2%, 51.5%)" stroke-width="1.5"></path>
        <path d="M2016.96 370.69L2016.96 370.69" stroke="hsl(228.5, 77.2%, 51.5%)" stroke-width="1.5"></path>
        <path d="M2016.96 370.69L2058.14 531.51" stroke="hsl(228.5, 77.2%, 51.5%)" stroke-width="1.5"></path>
        <path d="M2016.96 370.69L2017.21 191.15" stroke="hsl(228.5, 77.2%, 51.5%)" stroke-width="1.5"></path>
        <path d="M2016.96 370.69L1901.61 220.56" stroke="hsl(228.5, 77.2%, 51.5%)" stroke-width="1.5"></path>
        <path d="M2058.14 531.51L2058.14 531.51" stroke="hsl(228.5, 77.2%, 51.5%)" stroke-width="1.5"></path>
        <path d="M2058.14 531.51L1910.39 375.8" stroke="hsl(228.5, 77.2%, 51.5%)" stroke-width="1.5"></path>
        <path d="M2058.14 531.51L2017.21 191.15" stroke="hsl(228.5, 77.2%, 51.5%)" stroke-width="1.5"></path>
        <circle r="25" cx="72.43" cy="410.08" fill="url(#SvgjsRadialGradient1017)"></circle>
        <circle r="25" cx="232.89" cy="560.5" fill="url(#SvgjsRadialGradient1017)"></circle>
        <circle r="25" cx="831.78" cy="521.05" fill="url(#SvgjsRadialGradient1017)"></circle>
        <circle r="25" cx="1906.78" cy="95.97" fill="url(#SvgjsRadialGradient1017)"></circle>
        <circle r="5" cx="-108.16" cy="489.99" fill="#8b9ad9"></circle>
        <circle r="5" cx="88.63" cy="506.09" fill="#8b9ad9"></circle>
        <circle r="5" cx="258.36" cy="386.13" fill="#8b9ad9"></circle>
        <circle r="5" cx="405.6" cy="390.99" fill="#8b9ad9"></circle>
        <circle r="5" cx="339.09" cy="503.73" fill="#8b9ad9"></circle>
        <circle r="5" cx="507.88" cy="339.18" fill="#8b9ad9"></circle>
        <circle r="5" cx="705.11" cy="368.63" fill="#8b9ad9"></circle>
        <circle r="5" cx="681.01" cy="534.67" fill="#8b9ad9"></circle>
        <circle r="5" cx="814.97" cy="399.2" fill="#8b9ad9"></circle>
        <circle r="5" cx="954.2" cy="409.63" fill="#8b9ad9"></circle>
        <circle r="5" cx="971.9" cy="521.07" fill="#8b9ad9"></circle>
        <circle r="5" cx="1146.88" cy="405.69" fill="#8b9ad9"></circle>
        <circle r="5" cx="1119.96" cy="504.73" fill="#8b9ad9"></circle>
        <circle r="5" cx="1287.81" cy="216.74" fill="#8b9ad9"></circle>
        <circle r="5" cx="1264.56" cy="391.64" fill="#8b9ad9"></circle>
        <circle r="5" cx="1275.05" cy="514.33" fill="#8b9ad9"></circle>
        <circle r="5" cx="1445.44" cy="223.49" fill="#8b9ad9"></circle>
        <circle r="5" cx="1439.09" cy="354.97" fill="#8b9ad9"></circle>
        <circle r="5" cx="1408.33" cy="509.26" fill="#8b9ad9"></circle>
        <circle r="5" cx="1567.47" cy="-73.39" fill="#8b9ad9"></circle>
        <circle r="5" cx="1608.22" cy="67.14" fill="#8b9ad9"></circle>
        <circle r="5" cx="1537.64" cy="243.68" fill="#8b9ad9"></circle>
        <circle r="5" cx="1588.03" cy="398.93" fill="#8b9ad9"></circle>
        <circle r="5" cx="1556.6" cy="527.98" fill="#8b9ad9"></circle>
        <circle r="5" cx="1759" cy="-49.87" fill="#8b9ad9"></circle>
        <circle r="5" cx="1709.58" cy="64.8" fill="#8b9ad9"></circle>
        <circle r="5" cx="1735.24" cy="220.25" fill="#8b9ad9"></circle>
        <circle r="5" cx="1756.5" cy="554.83" fill="#8b9ad9"></circle>
        <circle r="5" cx="1901.61" cy="220.56" fill="#8b9ad9"></circle>
        <circle r="5" cx="1910.39" cy="375.8" fill="#8b9ad9"></circle>
        <circle r="5" cx="1871.25" cy="488.78" fill="#8b9ad9"></circle>
        <circle r="5" cx="2000.46" cy="-42.8" fill="#8b9ad9"></circle>
        <circle r="5" cx="2017.21" cy="191.15" fill="#8b9ad9"></circle>
        <circle r="5" cx="2016.96" cy="370.69" fill="#8b9ad9"></circle>
        <circle r="5" cx="2058.14" cy="531.51" fill="#8b9ad9"></circle>
    </g>
    <defs>
        <mask id="SvgjsMask1016">
            <rect width="1920" height="360" fill="#ffffff"></rect>
        </mask>
        <radialGradient id="SvgjsRadialGradient1017">
            <stop stop-color="#ffffff" offset="0.1"></stop>
            <stop stop-color="#1735b3" offset="0.2"></stop>
            <stop stop-color="rgba(23, 53, 179, 0)" offset="1"></stop>
        </radialGradient>
    </defs>
</svg>
