<svg xmlns="http://www.w3.org/2000/svg" version="1.1" xmlns:xlink="http://www.w3.org/1999/xlink" xmlns:svgjs="http://svgjs.com/svgjs" width="1920" height="400" preserveAspectRatio="none" viewBox="0 0 1920 400"><g mask="url(&quot;#SvgjsMask1162&quot;)" fill="none"><path d="M 0,313 C 128,263.2 384,69 640,64 C 896,59 1024,294.2 1280,288 C 1536,281.8 1792,84 1920,33L1920 400L0 400z" fill="rgba(146, 146, 146, 1)"></path><path d="M 0,78 C 55,126.4 165,332 275,320 C 385,308 440,34.2 550,18 C 660,1.8 715,219.4 825,239 C 935,258.6 990,109.2 1100,116 C 1210,122.8 1265,272 1375,273 C 1485,274 1541,118.6 1650,121 C 1759,123.4 1866,252.2 1920,285L1920 400L0 400z" fill="rgba(119, 119, 119, 1)"></path><path d="M 0,378 C 128,325.8 384,139.6 640,117 C 896,94.4 1024,257.8 1280,265 C 1536,272.2 1792,175.4 1920,153L1920 400L0 400z" fill="rgba(97, 119, 87, 1)"></path><path d="M 0,89 C 96,139 288,337.4 480,339 C 672,340.6 768,119.8 960,97 C 1152,74.2 1248,221 1440,225 C 1632,229 1824,138.6 1920,117L1920 400L0 400z" fill="rgba(106, 179, 145, 1)"></path></g><defs><mask id="SvgjsMask1162"><rect width="1920" height="400" fill="#ffffff"></rect></mask></defs></svg>